<svg width="50" height="50" viewBox="0 0 118 121" fill="none" xmlns="http://www.w3.org/2000/svg">
<path fill-rule="evenodd" clip-rule="evenodd" d="M81.1107 69.9386C76.3528 46.0612 73.5924 18.8925 72.5046 1.15301L77.4953 0.846985C78.5741 18.4408 81.3138 45.3721 86.0143 68.9614C88.3663 80.7653 91.1912 91.638 94.5059 100.059C96.1634 104.27 97.9149 107.794 99.7441 110.492C101.59 113.215 103.397 114.923 105.098 115.754L102.902 120.246C100.103 118.877 97.6967 116.383 95.6054 113.298C93.4978 110.189 91.5891 106.3 89.8534 101.891C86.3816 93.0703 83.4878 81.8681 81.1107 69.9386Z" fill="white"/>
<path fill-rule="evenodd" clip-rule="evenodd" d="M36.8893 69.9386C41.6472 46.0612 44.4076 18.8925 45.4954 1.15301L40.5047 0.846985C39.4259 18.4408 36.6862 45.3721 31.9858 68.9614C29.6337 80.7653 26.8088 91.638 23.4941 100.059C21.8366 104.27 20.0851 107.794 18.2559 110.492C16.4103 113.215 14.6028 114.923 12.902 115.754L15.0981 120.246C17.8973 118.877 20.3033 116.383 22.3946 113.298C24.5022 110.189 26.4109 106.3 28.1466 101.891C31.6184 93.0703 34.5122 81.8681 36.8893 69.9386Z" fill="white"/>
<path fill-rule="evenodd" clip-rule="evenodd" d="M77 6H41V1L77 1V6Z" fill="white"/>
<path fill-rule="evenodd" clip-rule="evenodd" d="M40.0158 25H77.5008L104.245 50.5H12.6499L40.0158 25ZM41.9842 30L25.3501 45.5H91.7552L75.4991 30H41.9842Z" fill="white"/>
<path fill-rule="evenodd" clip-rule="evenodd" d="M33.1625 67.5H85.8769L117.127 92.5H0.0374756L33.1625 67.5ZM34.8375 72.5L14.9625 87.5H102.873L84.123 72.5H34.8375Z" fill="white"/>
</svg>
