<svg width="50" height="50" viewBox="0 0 159 143" fill="none" xmlns="http://www.w3.org/2000/svg">
<path fill-rule="evenodd" clip-rule="evenodd" d="M28.8722 136.327C30.4528 137 32.4427 137.31 35 137.31H35.0656L35.1312 137.314C37.7662 137.452 48.0593 137.654 67.6947 137.31C72.5932 137.225 76.2973 136.994 79.149 136.398C81.9651 135.81 83.7226 134.911 84.9308 133.651C86.1504 132.379 87.0746 130.464 87.6717 127.322C88.272 124.164 88.5 119.999 88.5 114.441H93.5C93.5 120.062 93.2757 124.615 92.5837 128.256C91.8885 131.914 90.6804 134.879 88.5399 137.111C86.3881 139.356 83.558 140.585 80.171 141.292C76.8197 141.992 72.7053 142.223 67.7822 142.31C48.2807 142.651 37.8494 142.458 34.9345 142.31C32.0545 142.305 29.3365 141.96 26.9114 140.926C24.4105 139.86 22.3583 138.119 20.7785 135.569C17.7385 130.661 16.5 122.812 16.5 111H21.5C21.5 122.781 22.8 129.337 25.0292 132.936C26.084 134.639 27.3491 135.677 28.8722 136.327Z" fill="white"/>
<path fill-rule="evenodd" clip-rule="evenodd" d="M145 5H61C56.0294 5 52 9.02944 52 14V100C52 104.971 56.0294 109 61 109H145C149.971 109 154 104.971 154 100V14C154 9.02944 149.971 5 145 5ZM61 0C53.268 0 47 6.26801 47 14V100C47 107.732 53.268 114 61 114H145C152.732 114 159 107.732 159 100V14C159 6.26801 152.732 0 145 0H61Z" fill="white"/>
<path fill-rule="evenodd" clip-rule="evenodd" d="M31 91H7C5.89543 91 5 91.8954 5 93V104C5 105.105 5.89543 106 7 106H31C32.1046 106 33 105.105 33 104V93C33 91.8954 32.1046 91 31 91ZM7 86C3.13401 86 0 89.134 0 93V104C0 107.866 3.13401 111 7 111H31C34.866 111 38 107.866 38 104V93C38 89.134 34.866 86 31 86H7Z" fill="white"/>
<path fill-rule="evenodd" clip-rule="evenodd" d="M6 86V77H14V86H6Z" fill="white"/>
<path fill-rule="evenodd" clip-rule="evenodd" d="M23 86V77H31V86H23Z" fill="white"/>
<path fill-rule="evenodd" clip-rule="evenodd" d="M131.44 61.9389L112.633 27.8275C108.451 20.2422 97.5492 20.2422 93.3671 27.8275L74.56 61.939C70.518 69.2701 75.8212 78.25 84.1929 78.25H121.807C130.179 78.25 135.482 69.2702 131.44 61.9389ZM117.012 25.4134C110.928 14.3802 95.0715 14.3803 88.9885 25.4134L70.1814 59.5248C64.3021 70.1884 72.0159 83.25 84.1929 83.25H121.807C133.984 83.25 141.698 70.1884 135.819 59.5248L117.012 25.4134Z" fill="white"/>
</svg>
