<svg width="50" height="50" viewBox="0 0 158 147" fill="none" xmlns="http://www.w3.org/2000/svg">
<path fill-rule="evenodd" clip-rule="evenodd" d="M144 5H14C9.02944 5 5 9.02944 5 14V133C5 137.971 9.02944 142 14 142H144C148.971 142 153 137.971 153 133V14C153 9.02944 148.971 5 144 5ZM14 0C6.26801 0 0 6.26801 0 14V133C0 140.732 6.26802 147 14 147H144C151.732 147 158 140.732 158 133V14C158 6.26801 151.732 0 144 0H14Z" fill="black"/>
<path fill-rule="evenodd" clip-rule="evenodd" d="M52 103C70.0083 103 84 89.4687 84 73.5C84 57.5313 70.0083 44 52 44C33.9917 44 20 57.5313 20 73.5C20 89.4687 33.9917 103 52 103ZM52 108C72.4345 108 89 92.5538 89 73.5C89 54.4462 72.4345 39 52 39C31.5655 39 15 54.4462 15 73.5C15 92.5538 31.5655 108 52 108Z" fill="black"/>
<path fill-rule="evenodd" clip-rule="evenodd" d="M130 44H109V103H130V44ZM104 39V108H135V39H104Z" fill="black"/>
</svg>
