<svg width="50" height="50" viewBox="0 0 166 154" fill="none" xmlns="http://www.w3.org/2000/svg">
<path d="M92 125C92 144.403 90.2739 151 62.5049 151H47.0074C19.6266 151 21.0117 143.006 21.0117 125M66 127H147C155.837 127 163 119.837 163 111V19C163 10.1634 155.837 3 147 3H66C57.1634 3 50 10.1634 50 19V111C50 119.837 57.1634 127 66 127ZM10 125H33C36.866 125 40 121.866 40 118V77C40 73.134 36.866 70 33 70H10C6.13401 70 3 73.134 3 77V118C3 121.866 6.13401 125 10 125ZM81 107H131C134.866 107 138 103.866 138 100V80C138 76.134 134.866 73 131 73H81C77.134 73 74 76.134 74 80V100C74 103.866 77.134 107 81 107Z" stroke="black" stroke-width="5"/>
</svg>
